<svg xmlns="http://www.w3.org/2000/svg" xmlns:xlink="http://www.w3.org/1999/xlink" viewBox="0 0 524 356"><defs><style>.cls-1,.cls-14,.cls-15,.cls-60{fill:#af1c63;}.cls-2,.cls-3,.cls-7{fill:#c4302f;}.cls-10,.cls-13,.cls-15,.cls-3,.cls-6{fill-rule:evenodd;}.cls-10,.cls-4,.cls-41,.cls-5,.cls-6,.cls-64,.cls-78,.cls-8,.cls-9{fill:none;}.cls-4,.cls-5,.cls-6{stroke:#af1c63;stroke-width:3px;}.cls-4,.cls-41,.cls-5,.cls-6,.cls-64{stroke-miterlimit:10;}.cls-11,.cls-14,.cls-4,.cls-7,.cls-8{clip-rule:evenodd;}.cls-11,.cls-12,.cls-13,.cls-47,.cls-73{fill:#ed8e00;}.cls-16{isolation:isolate;}.cls-17,.cls-60{opacity:0.85;}.cls-17,.cls-20,.cls-59,.cls-60{mix-blend-mode:multiply;}.cls-18{clip-path:url(#clip-path);}.cls-19{clip-path:url(#clip-path-2);}.cls-21{clip-path:url(#clip-path-3);}.cls-22{clip-path:url(#clip-path-4);}.cls-23{clip-path:url(#clip-path-5);}.cls-24{clip-path:url(#clip-path-7);}.cls-25{clip-path:url(#clip-path-9);}.cls-26{clip-path:url(#clip-path-10);}.cls-27{clip-path:url(#clip-path-11);}.cls-28{clip-path:url(#clip-path-13);}.cls-29{clip-path:url(#clip-path-15);}.cls-30{clip-path:url(#clip-path-16);}.cls-31{clip-path:url(#clip-path-17);}.cls-32{clip-path:url(#clip-path-19);}.cls-33{clip-path:url(#clip-path-21);}.cls-34{clip-path:url(#clip-path-23);}.cls-35{clip-path:url(#clip-path-25);}.cls-36{clip-path:url(#clip-path-27);}.cls-37{clip-path:url(#clip-path-28);}.cls-38{clip-path:url(#clip-path-29);}.cls-39{clip-path:url(#clip-path-31);}.cls-40{fill:#fff;}.cls-41,.cls-64{stroke:#bb417c;}.cls-41{stroke-width:6px;}.cls-42,.cls-59{opacity:0.8;}.cls-43{clip-path:url(#clip-path-33);}.cls-44{clip-path:url(#clip-path-34);}.cls-45{clip-path:url(#clip-path-35);}.cls-46{clip-path:url(#clip-path-37);}.cls-47,.cls-77{opacity:0.9;}.cls-48{clip-path:url(#clip-path-39);}.cls-49{clip-path:url(#clip-path-41);}.cls-50{clip-path:url(#clip-path-43);}.cls-51{opacity:0.7;}.cls-52{clip-path:url(#clip-path-45);}.cls-53{clip-path:url(#clip-path-46);}.cls-54{clip-path:url(#clip-path-47);}.cls-55{clip-path:url(#clip-path-49);}.cls-56{clip-path:url(#clip-path-51);}.cls-57{clip-path:url(#clip-path-53);}.cls-58{clip-path:url(#clip-path-55);}.cls-61{clip-path:url(#clip-path-57);}.cls-62{clip-path:url(#clip-path-59);}.cls-63{clip-path:url(#clip-path-61);}.cls-64,.cls-78{stroke-width:8px;}.cls-65{clip-path:url(#clip-path-63);}.cls-66{clip-path:url(#clip-path-65);}.cls-67{clip-path:url(#clip-path-67);}.cls-68{clip-path:url(#clip-path-69);}.cls-69{fill:#bb417c;}.cls-70{clip-path:url(#clip-path-70);}.cls-71{clip-path:url(#clip-path-72);}.cls-72{clip-path:url(#clip-path-74);}.cls-73{opacity:0.8;}.cls-74{clip-path:url(#clip-path-76);}.cls-75{clip-path:url(#clip-path-78);}.cls-76{clip-path:url(#clip-path-80);}.cls-77{fill:#f1a533;}.cls-78{stroke:#fff;stroke-linecap:round;stroke-linejoin:round;}.cls-79{opacity:0.92;}</style><clipPath id="clip-path"><rect class="cls-1" x="93" y="12" width="345" height="131" rx="12" ry="12"/></clipPath><clipPath id="clip-path-2"><rect class="cls-1" x="-789" y="-209" width="1440" height="2602"/></clipPath><clipPath id="clip-path-3"><path class="cls-7" d="M195.5,92h283a11.5,11.5,0,0,1,0,23h-283a11.5,11.5,0,0,1,0-23Z"/></clipPath><clipPath id="clip-path-4"><rect class="cls-2" x="-789" y="-209" width="1440" height="2602"/></clipPath><clipPath id="clip-path-5"><rect class="cls-2" x="154" y="62" width="366" height="83"/></clipPath><clipPath id="clip-path-7"><rect class="cls-2" x="184" y="92" width="306" height="23"/></clipPath><clipPath id="clip-path-9"><path class="cls-7" d="M196,147H478c6.63,0,12,5.87,12,13.12v20.76c0,7.25-5.37,13.12-12,13.12H196c-6.63,0-12-5.87-12-13.12V160.12C184,152.87,189.37,147,196,147Z"/></clipPath><clipPath id="clip-path-10"><rect class="cls-2" x="-789" y="-242.12" width="1440" height="2844.05"/></clipPath><clipPath id="clip-path-11"><rect class="cls-2" x="154" y="114.21" width="366" height="112.58"/></clipPath><clipPath id="clip-path-13"><rect class="cls-2" x="184" y="147" width="306" height="47"/></clipPath><clipPath id="clip-path-15"><path class="cls-4" d="M250.76,167H480.24c5.39,0,9.76,5.37,9.76,12v25c0,6.63-4.37,12-9.76,12H250.76c-5.39,0-9.76-5.37-9.76-12V179C241,172.37,245.37,167,250.76,167Z"/></clipPath><clipPath id="clip-path-16"><rect class="cls-5" x="-550.75" y="-209" width="1171.76" height="2602"/></clipPath><clipPath id="clip-path-17"><rect class="cls-5" x="216.59" y="137" width="297.82" height="109"/></clipPath><clipPath id="clip-path-19"><rect class="cls-5" x="241" y="167" width="249" height="49"/></clipPath><clipPath id="clip-path-21"><rect class="cls-2" x="184" y="240" width="306" height="41" rx="12" ry="12"/></clipPath><clipPath id="clip-path-23"><rect class="cls-2" x="154" y="210" width="366" height="101"/></clipPath><clipPath id="clip-path-25"><rect class="cls-2" x="184" y="240" width="306" height="41"/></clipPath><clipPath id="clip-path-27"><path class="cls-8" d="M195.5,269h283a11.5,11.5,0,0,1,0,23h-283a11.5,11.5,0,0,1,0-23Z"/></clipPath><clipPath id="clip-path-28"><rect class="cls-9" x="-789" y="-209" width="1440" height="2602"/></clipPath><clipPath id="clip-path-29"><rect class="cls-9" x="154" y="239" width="366" height="83"/></clipPath><clipPath id="clip-path-31"><rect class="cls-9" x="184" y="269" width="306" height="23"/></clipPath><clipPath id="clip-path-33"><path class="cls-11" d="M250.5,117h87a11.5,11.5,0,0,1,0,23h-87a11.5,11.5,0,0,1,0-23Z"/></clipPath><clipPath id="clip-path-34"><rect class="cls-12" x="-789" y="-209" width="1440" height="2602"/></clipPath><clipPath id="clip-path-35"><rect class="cls-12" x="209" y="87" width="170" height="83"/></clipPath><clipPath id="clip-path-37"><rect class="cls-12" x="239" y="117" width="110" height="23"/></clipPath><clipPath id="clip-path-39"><path class="cls-8" d="M367.5,117h18a11.5,11.5,0,0,1,0,23h-18a11.5,11.5,0,0,1,0-23Z"/></clipPath><clipPath id="clip-path-41"><rect class="cls-9" x="326" y="87" width="101" height="83"/></clipPath><clipPath id="clip-path-43"><rect class="cls-9" x="356" y="117" width="41" height="23"/></clipPath><clipPath id="clip-path-45"><path class="cls-11" d="M200,152h19a10.51,10.51,0,1,1,0,21H200a10.51,10.51,0,1,1,0-21Z"/></clipPath><clipPath id="clip-path-46"><rect class="cls-12" x="-1049" y="-206.91" width="1440" height="2483.73"/></clipPath><clipPath id="clip-path-47"><rect class="cls-12" x="159" y="123.36" width="101" height="78.27"/></clipPath><clipPath id="clip-path-49"><rect class="cls-12" x="189" y="152" width="41" height="21"/></clipPath><clipPath id="clip-path-51"><path class="cls-8" d="M414.5,117h64a11.5,11.5,0,0,1,0,23h-64a11.5,11.5,0,0,1,0-23Z"/></clipPath><clipPath id="clip-path-53"><rect class="cls-9" x="373" y="87" width="147" height="83"/></clipPath><clipPath id="clip-path-55"><rect class="cls-9" x="403" y="117" width="87" height="23"/></clipPath><clipPath id="clip-path-57"><rect class="cls-9" x="47" y="218" width="339" height="112" rx="12" ry="12"/></clipPath><clipPath id="clip-path-59"><rect class="cls-9" x="7" y="178" width="419" height="192"/></clipPath><clipPath id="clip-path-61"><rect class="cls-9" x="47" y="218" width="339" height="112"/></clipPath><clipPath id="clip-path-63"><path class="cls-14" d="M386,243H47V230a12,12,0,0,1,12-12H374a12,12,0,0,1,12,12Z"/></clipPath><clipPath id="clip-path-65"><rect class="cls-1" x="17" y="188" width="400" height="85"/></clipPath><clipPath id="clip-path-67"><rect class="cls-1" x="47" y="218" width="340" height="25"/></clipPath><clipPath id="clip-path-69"><rect class="cls-9" x="82" y="262" width="197" height="32"/></clipPath><clipPath id="clip-path-70"><circle class="cls-9" cx="363" cy="231" r="7"/></clipPath><clipPath id="clip-path-72"><circle class="cls-9" cx="343" cy="231" r="7"/></clipPath><clipPath id="clip-path-74"><path class="cls-11" d="M195.5,117h60a11.5,11.5,0,0,1,0,23h-60a11.5,11.5,0,0,1,0-23Z"/></clipPath><clipPath id="clip-path-76"><path class="cls-8" d="M195,192h88a11,11,0,0,1,0,22H195a11,11,0,0,1,0-22Z"/></clipPath><clipPath id="clip-path-78"><rect class="cls-9" x="154" y="162" width="170" height="82"/></clipPath><clipPath id="clip-path-80"><rect class="cls-9" x="184" y="192" width="110" height="22"/></clipPath></defs><title>appsody home illustration</title><g class="cls-16"><g id="Layer_1" data-name="Layer 1"><g class="cls-17"><rect class="cls-1" x="93" y="12" width="345" height="131" rx="12" ry="12"/><g class="cls-18"><rect class="cls-1" x="-789" y="-209" width="1440" height="2602"/><g class="cls-19"><rect class="cls-1" x="88" y="7" width="355" height="141"/></g></g></g><g class="cls-20"><path class="cls-3" d="M195.5,92h283a11.5,11.5,0,0,1,0,23h-283a11.5,11.5,0,0,1,0-23Z"/><g class="cls-21"><rect class="cls-2" x="-789" y="-209" width="1440" height="2602"/><g class="cls-22"><g class="cls-16"><rect class="cls-2" x="154" y="62" width="366" height="83"/><g class="cls-23"><path class="cls-3" d="M195.5,92h283a11.5,11.5,0,0,1,0,23h-283a11.5,11.5,0,0,1,0-23Z"/><g class="cls-21"><rect class="cls-2" x="184" y="92" width="306" height="23"/><g class="cls-24"><path class="cls-2" d="M195.5,92h283a11.5,11.5,0,0,1,0,23h-283a11.5,11.5,0,0,1,0-23Z"/></g></g><rect class="cls-2" x="184" y="92" width="306" height="23"/><g class="cls-24"><path class="cls-2" d="M195.5,92h283a11.5,11.5,0,0,1,0,23h-283a11.5,11.5,0,0,1,0-23Z"/></g></g></g></g></g></g><path class="cls-3" d="M196,147H478c6.63,0,12,5.87,12,13.12v20.76c0,7.25-5.37,13.12-12,13.12H196c-6.63,0-12-5.87-12-13.12V160.12C184,152.87,189.37,147,196,147Z"/><g class="cls-25"><rect class="cls-2" x="-789" y="-242.12" width="1440" height="2844.05"/><g class="cls-26"><g class="cls-16"><rect class="cls-2" x="154" y="114.21" width="366" height="112.58"/><g class="cls-27"><path class="cls-3" d="M196,147H478c6.63,0,12,5.87,12,13.12v20.76c0,7.25-5.37,13.12-12,13.12H196c-6.63,0-12-5.87-12-13.12V160.12C184,152.87,189.37,147,196,147Z"/><g class="cls-25"><rect class="cls-2" x="184" y="147" width="306" height="47"/><g class="cls-28"><path class="cls-2" d="M196,147H478c6.63,0,12,5.87,12,13.12v20.76c0,7.25-5.37,13.12-12,13.12H196c-6.63,0-12-5.87-12-13.12V160.12C184,152.87,189.37,147,196,147Z"/></g></g><rect class="cls-2" x="184" y="147" width="306" height="47"/><g class="cls-28"><path class="cls-2" d="M196,147H478c6.63,0,12,5.87,12,13.12v20.76c0,7.25-5.37,13.12-12,13.12H196c-6.63,0-12-5.87-12-13.12V160.12C184,152.87,189.37,147,196,147Z"/></g></g></g></g></g><g class="cls-17"><g class="cls-29"><g class="cls-30"><g class="cls-16"><g class="cls-31"><g class="cls-29"><g class="cls-32"><path class="cls-5" d="M250.76,167H480.24c5.39,0,9.76,5.37,9.76,12v25c0,6.63-4.37,12-9.76,12H250.76c-5.39,0-9.76-5.37-9.76-12V179C241,172.37,245.37,167,250.76,167Z"/></g><rect class="cls-5" x="241" y="167" width="249" height="49"/></g><path class="cls-6" d="M250.76,167H480.24c5.39,0,9.76,5.37,9.76,12v25c0,6.63-4.37,12-9.76,12H250.76c-5.39,0-9.76-5.37-9.76-12V179C241,172.37,245.37,167,250.76,167Z"/><g class="cls-32"><path class="cls-5" d="M250.76,167H480.24c5.39,0,9.76,5.37,9.76,12v25c0,6.63-4.37,12-9.76,12H250.76c-5.39,0-9.76-5.37-9.76-12V179C241,172.37,245.37,167,250.76,167Z"/></g><rect class="cls-5" x="241" y="167" width="249" height="49"/></g><rect class="cls-5" x="216.59" y="137" width="297.82" height="109"/></g></g><rect class="cls-5" x="-550.75" y="-209" width="1171.76" height="2602"/></g><path class="cls-6" d="M250.76,167H480.24c5.39,0,9.76,5.37,9.76,12v25c0,6.63-4.37,12-9.76,12H250.76c-5.39,0-9.76-5.37-9.76-12V179C241,172.37,245.37,167,250.76,167Z"/></g><rect class="cls-2" x="184" y="240" width="306" height="41" rx="12" ry="12"/><g class="cls-33"><rect class="cls-2" x="-789" y="-209" width="1440" height="2602"/><g class="cls-22"><g class="cls-16"><rect class="cls-2" x="154" y="210" width="366" height="101"/><g class="cls-34"><rect class="cls-2" x="184" y="240" width="306" height="41" rx="12" ry="12"/><g class="cls-33"><rect class="cls-2" x="184" y="240" width="306" height="41"/><g class="cls-35"><rect class="cls-2" x="184" y="240" width="306" height="41" rx="12" ry="12"/></g></g><rect class="cls-2" x="184" y="240" width="306" height="41"/><g class="cls-35"><rect class="cls-2" x="184" y="240" width="306" height="41" rx="12" ry="12"/></g></g></g></g></g><g class="cls-20"><g class="cls-36"><g class="cls-37"><g class="cls-16"><g class="cls-38"><g class="cls-36"><g class="cls-39"><path class="cls-40" d="M195.5,269h283a11.5,11.5,0,0,1,0,23h-283a11.5,11.5,0,0,1,0-23Z"/></g></g><g class="cls-39"><path class="cls-41" d="M195.5,269h283a11.5,11.5,0,0,1,0,23h-283a11.5,11.5,0,0,1,0-23Z"/></g></g></g></g></g></g><g class="cls-42"><path class="cls-13" d="M250.5,117h87a11.5,11.5,0,0,1,0,23h-87a11.5,11.5,0,0,1,0-23Z"/><g class="cls-43"><rect class="cls-12" x="-789" y="-209" width="1440" height="2602"/><g class="cls-44"><g class="cls-16"><rect class="cls-12" x="209" y="87" width="170" height="83"/><g class="cls-45"><path class="cls-13" d="M250.5,117h87a11.5,11.5,0,0,1,0,23h-87a11.5,11.5,0,0,1,0-23Z"/><g class="cls-43"><rect class="cls-12" x="239" y="117" width="110" height="23"/><g class="cls-46"><path class="cls-47" d="M250.5,117h87a11.5,11.5,0,0,1,0,23h-87a11.5,11.5,0,0,1,0-23Z"/></g></g><rect class="cls-12" x="239" y="117" width="110" height="23"/><g class="cls-46"><path class="cls-12" d="M250.5,117h87a11.5,11.5,0,0,1,0,23h-87a11.5,11.5,0,0,1,0-23Z"/></g></g></g></g></g></g><g class="cls-20"><g class="cls-48"><g class="cls-37"><g class="cls-16"><g class="cls-49"><g class="cls-48"><g class="cls-50"><path class="cls-40" d="M367.5,117h18a11.5,11.5,0,0,1,0,23h-18a11.5,11.5,0,0,1,0-23Z"/></g></g><g class="cls-50"><path class="cls-41" d="M367.5,117h18a11.5,11.5,0,0,1,0,23h-18a11.5,11.5,0,0,1,0-23Z"/></g></g></g></g></g></g><g class="cls-51"><path class="cls-13" d="M200,152h19a10.51,10.51,0,1,1,0,21H200a10.51,10.51,0,1,1,0-21Z"/><g class="cls-52"><rect class="cls-12" x="-1049" y="-206.91" width="1440" height="2483.73"/><g class="cls-53"><g class="cls-16"><rect class="cls-12" x="159" y="123.36" width="101" height="78.27"/><g class="cls-54"><path class="cls-13" d="M200,152h19a10.51,10.51,0,1,1,0,21H200a10.51,10.51,0,1,1,0-21Z"/><g class="cls-52"><rect class="cls-12" x="189" y="152" width="41" height="21"/><g class="cls-55"><path class="cls-12" d="M200,152h19a10.51,10.51,0,1,1,0,21H200a10.51,10.51,0,1,1,0-21Z"/></g></g><rect class="cls-12" x="189" y="152" width="41" height="21"/><g class="cls-55"><path class="cls-12" d="M200,152h19a10.51,10.51,0,1,1,0,21H200a10.51,10.51,0,1,1,0-21Z"/></g></g></g></g></g></g><g class="cls-20"><g class="cls-56"><g class="cls-37"><g class="cls-16"><g class="cls-57"><g class="cls-56"><g class="cls-58"><path class="cls-40" d="M414.5,117h64a11.5,11.5,0,0,1,0,23h-64a11.5,11.5,0,0,1,0-23Z"/></g></g><g class="cls-58"><path class="cls-41" d="M414.5,117h64a11.5,11.5,0,0,1,0,23h-64a11.5,11.5,0,0,1,0-23Z"/></g></g></g></g></g></g><g class="cls-59"><path class="cls-12" d="M366.8,110.84c-9.12-3-20.33.53-31.41,11.16L286.7,168.68c-22.17,21.26-17.67,46,10,54.95l60.77,19.68c27.68,9,45.83-8.44,40.32-38.66L385.72,138.3c-2.76-15.12-9.79-24.5-18.92-27.46Z"/></g><g class="cls-59"><path class="cls-2" d="M410.69,121.28a56.79,56.79,0,0,0-19.63,5.29L326,156.14c-16.64,7.56-26.62,19.17-28.1,32.68-1.41,12.83,5.16,25.42,18.49,35.44l54.74,41.17c9.69,7.29,19.84,10.82,29.34,10.2,17.33-1.13,30.14-15.82,33.44-38.34l10.34-70.73c3.5-23.88-6-35-12-39.45-5.79-4.36-13.26-6.38-21.58-5.83Z"/></g><path class="cls-60" d="M395.6,294.36c-10.66-1.19-20.24-8.69-27.24-21.41L334.28,211c-7.67-13.95-8.37-27.16-2-37.2s19-15.52,35.52-15.57l73.78-.25c16.59-.05,28.76,5.44,34.28,15.46s3.63,23.24-5.3,37.22l-39.71,62.19c-8.89,13.93-20.31,21.63-32.16,21.67A29.55,29.55,0,0,1,395.6,294.36Z"/><g class="cls-61"><g class="cls-37"><g class="cls-16"><g class="cls-62"><g class="cls-61"><g class="cls-63"><rect class="cls-40" x="47" y="218" width="339" height="112" rx="12" ry="12"/></g></g><g class="cls-63"><rect class="cls-64" x="47" y="218" width="339" height="112" rx="12" ry="12"/></g></g></g></g></g><path class="cls-15" d="M386,243H47V230a12,12,0,0,1,12-12H374a12,12,0,0,1,12,12Z"/><g class="cls-65"><rect class="cls-1" x="-789" y="-209" width="1440" height="2602"/><g class="cls-19"><g class="cls-16"><rect class="cls-1" x="17" y="188" width="400" height="85"/><g class="cls-66"><path class="cls-15" d="M386,243H47V230a12,12,0,0,1,12-12H374a12,12,0,0,1,12,12Z"/><g class="cls-65"><rect class="cls-1" x="47" y="218" width="340" height="25"/><g class="cls-67"><path class="cls-1" d="M386,243H47V230a12,12,0,0,1,12-12H374a12,12,0,0,1,12,12Z"/></g></g><rect class="cls-1" x="47" y="218" width="340" height="25"/><g class="cls-67"><path class="cls-1" d="M386,243H47V230a12,12,0,0,1,12-12H374a12,12,0,0,1,12,12Z"/></g></g></g></g></g><g class="cls-68"><path class="cls-69" d="M103.31,271.74a1.65,1.65,0,0,1,.45,1.2V292.5a1.65,1.65,0,0,1-.45,1.2,1.6,1.6,0,0,1-1.18.46,1.61,1.61,0,0,1-1.19-.45,1.66,1.66,0,0,1-.44-1.21v-8.61H87.89v8.61a1.65,1.65,0,0,1-.45,1.2,1.6,1.6,0,0,1-1.18.46,1.55,1.55,0,0,1-1.64-1.66V272.94a1.65,1.65,0,0,1,.45-1.2,1.58,1.58,0,0,1,1.19-.46,1.56,1.56,0,0,1,1.18.46,1.65,1.65,0,0,1,.45,1.2v8.26H100.5v-8.26a1.69,1.69,0,0,1,.44-1.2,1.58,1.58,0,0,1,1.19-.46A1.56,1.56,0,0,1,103.31,271.74Z"/><path class="cls-69" d="M121.58,290.42a1.31,1.31,0,0,1,.29.89,1.84,1.84,0,0,1-1.15,1.57,9.83,9.83,0,0,1-2.45,1,9.64,9.64,0,0,1-2.54.35,7.88,7.88,0,0,1-5.86-2.16,8,8,0,0,1-2.14-5.9,9.27,9.27,0,0,1,.94-4.26,7.05,7.05,0,0,1,2.66-2.88,7.43,7.43,0,0,1,3.89-1,6.34,6.34,0,0,1,5,2,7.81,7.81,0,0,1,1.82,5.44c0,.85-.38,1.28-1.15,1.28H111c.21,3.3,1.8,5,4.77,5a6,6,0,0,0,2-.32,15.09,15.09,0,0,0,1.82-.84l.53-.27a1.75,1.75,0,0,1,.72-.21A.89.89,0,0,1,121.58,290.42Zm-9.28-8.87a5.58,5.58,0,0,0-1.34,3.33h8.26a5.39,5.39,0,0,0-1.11-3.34,3.52,3.52,0,0,0-2.83-1.17A3.91,3.91,0,0,0,112.3,281.55Z"/><path class="cls-69" d="M126,293.78a1.42,1.42,0,0,1-.47-1.16V272.85a1.47,1.47,0,0,1,.47-1.17,1.88,1.88,0,0,1,2.32,0,1.52,1.52,0,0,1,.44,1.17v19.77a1.47,1.47,0,0,1-.44,1.16,2,2,0,0,1-2.32,0Z"/><path class="cls-69" d="M133.76,293.78a1.42,1.42,0,0,1-.46-1.16V272.85a1.47,1.47,0,0,1,.46-1.17,1.71,1.71,0,0,1,1.17-.4,1.65,1.65,0,0,1,1.15.4,1.49,1.49,0,0,1,.45,1.17v19.77a1.44,1.44,0,0,1-.45,1.16,1.73,1.73,0,0,1-1.15.38A1.81,1.81,0,0,1,133.76,293.78Z"/><path class="cls-69" d="M143.77,293.23a6.66,6.66,0,0,1-2.68-2.83,9.23,9.23,0,0,1-1-4.27,9.34,9.34,0,0,1,1-4.31,6.72,6.72,0,0,1,2.68-2.83,8.78,8.78,0,0,1,8.1,0,6.74,6.74,0,0,1,2.69,2.83,9.34,9.34,0,0,1,.94,4.31,9.23,9.23,0,0,1-.94,4.27,6.69,6.69,0,0,1-2.69,2.83,8.78,8.78,0,0,1-8.1,0Zm7.33-3a8,8,0,0,0,0-8.24,4.44,4.44,0,0,0-6.53,0,6.39,6.39,0,0,0-1.15,4.11,6.51,6.51,0,0,0,1.13,4.13,4.54,4.54,0,0,0,6.56,0Z"/><path class="cls-69" d="M197.1,271.5a1.55,1.55,0,0,1,.87-.25,1.58,1.58,0,0,1,1.07.4,1.3,1.3,0,0,1,.46,1,1.66,1.66,0,0,1-.12.64L192.3,293.1a1.71,1.71,0,0,1-.7.84,2,2,0,0,1-1.06.28,2,2,0,0,1-1-.28,1.52,1.52,0,0,1-.67-.84L183,276.59l-6,16.51a1.56,1.56,0,0,1-.67.84,2.05,2.05,0,0,1-2.07,0,1.73,1.73,0,0,1-.68-.84l-7.08-19.77a1.66,1.66,0,0,1-.12-.64,1.29,1.29,0,0,1,.48-1,1.71,1.71,0,0,1,1.15-.4,1.61,1.61,0,0,1,.88.25,1.55,1.55,0,0,1,.59.77l5.92,17,6-16.87a1.55,1.55,0,0,1,.62-.83,1.68,1.68,0,0,1,.94-.29,1.47,1.47,0,0,1,.93.31,1.89,1.89,0,0,1,.64.84l5.89,17,6-17.19A1.52,1.52,0,0,1,197.1,271.5Z"/><path class="cls-69" d="M205.63,293.23a6.69,6.69,0,0,1-2.69-2.83,9.23,9.23,0,0,1-.94-4.27,9.34,9.34,0,0,1,.94-4.31,6.74,6.74,0,0,1,2.69-2.83,8.78,8.78,0,0,1,8.1,0,6.66,6.66,0,0,1,2.68,2.83,9.34,9.34,0,0,1,1,4.31,9.23,9.23,0,0,1-1,4.27,6.61,6.61,0,0,1-2.68,2.83,8.78,8.78,0,0,1-8.1,0Zm7.33-3a6.51,6.51,0,0,0,1.13-4.13,6.39,6.39,0,0,0-1.15-4.11,4.44,4.44,0,0,0-6.53,0,8,8,0,0,0,0,8.24,4.54,4.54,0,0,0,6.56,0Z"/><path class="cls-69" d="M230.67,279.38a1.43,1.43,0,0,1-.35,1.05,1.87,1.87,0,0,1-1.22.42l-1,.09a4.16,4.16,0,0,0-3,1.41,4.56,4.56,0,0,0-1,2.95v7.32a1.47,1.47,0,0,1-.44,1.16,2,2,0,0,1-2.32,0,1.42,1.42,0,0,1-.47-1.16v-13a1.43,1.43,0,0,1,.47-1.14,1.72,1.72,0,0,1,1.16-.4,1.57,1.57,0,0,1,1.08.4,1.48,1.48,0,0,1,.43,1.11v1.53a4.68,4.68,0,0,1,1.85-2.14,6.18,6.18,0,0,1,2.76-.86l.44,0C230.16,278,230.67,278.44,230.67,279.38Z"/><path class="cls-69" d="M233.12,293.78a1.42,1.42,0,0,1-.47-1.16V272.85a1.47,1.47,0,0,1,.47-1.17,1.71,1.71,0,0,1,1.17-.4,1.66,1.66,0,0,1,1.15.4,1.49,1.49,0,0,1,.45,1.17v19.77a1.44,1.44,0,0,1-.45,1.16,1.75,1.75,0,0,1-1.15.38A1.81,1.81,0,0,1,233.12,293.78Z"/><path class="cls-69" d="M254.35,271.7a1.44,1.44,0,0,1,.45,1.12v19.77a1.54,1.54,0,0,1-.43,1.15,1.84,1.84,0,0,1-2.34,0,1.5,1.5,0,0,1-.43-1.15v-1.28a4.92,4.92,0,0,1-2,2.16,6.27,6.27,0,0,1-3.1.75,6.48,6.48,0,0,1-3.6-1,6.78,6.78,0,0,1-2.47-2.88,9.8,9.8,0,0,1-.88-4.26,9.6,9.6,0,0,1,.88-4.25,6.45,6.45,0,0,1,6.07-3.81,6.14,6.14,0,0,1,3.08.75,5,5,0,0,1,2,2.13v-8.13a1.38,1.38,0,0,1,.43-1.07,1.63,1.63,0,0,1,1.17-.4A1.65,1.65,0,0,1,254.35,271.7Zm-3.9,18.52a7.9,7.9,0,0,0,0-8.19,3.89,3.89,0,0,0-3.25-1.44,4,4,0,0,0-3.28,1.43,6.21,6.21,0,0,0-1.16,4,6.47,6.47,0,0,0,1.18,4.12,4.35,4.35,0,0,0,6.5,0Z"/><path class="cls-69" d="M259.42,293.58a2,2,0,0,1-.59-1.47,2,2,0,0,1,.59-1.49,2,2,0,0,1,1.46-.59,2,2,0,0,1,1.44.59,2.07,2.07,0,0,1,.57,1.49,2,2,0,0,1-.57,1.47,2,2,0,0,1-1.44.58A2,2,0,0,1,259.42,293.58Zm.79-5.95a1.11,1.11,0,0,1-.32-.77l-1-13.56a1.69,1.69,0,0,1,.46-1.46,2,2,0,0,1,1.49-.56,2,2,0,0,1,1.45.56,1.69,1.69,0,0,1,.47,1.46l-1,13.56a1.21,1.21,0,0,1-.29.79.89.89,0,0,1-.67.27A.92.92,0,0,1,260.21,287.63Z"/></g><g class="cls-70"><g class="cls-37"><rect class="cls-40" x="351" y="219" width="24" height="24"/></g></g><g class="cls-71"><g class="cls-37"><rect class="cls-40" x="331" y="219" width="24" height="24"/></g></g><g class="cls-20"><path class="cls-13" d="M195.5,117h60a11.5,11.5,0,0,1,0,23h-60a11.5,11.5,0,0,1,0-23Z"/><g class="cls-72"><rect class="cls-12" x="-789" y="-209" width="1440" height="2602"/><g class="cls-44"><rect class="cls-73" x="179" y="112" width="93" height="33"/></g></g></g><g class="cls-20"><g class="cls-74"><g class="cls-37"><g class="cls-16"><g class="cls-75"><g class="cls-74"><g class="cls-76"><path class="cls-77" d="M195,192h88a11,11,0,0,1,0,22H195a11,11,0,0,1,0-22Z"/></g></g><g class="cls-76"><path class="cls-41" d="M195,192h88a11,11,0,0,1,0,22H195a11,11,0,0,1,0-22Z"/></g></g></g></g></g></g><polyline class="cls-78" points="129.24 32.5 166 69.26 130.26 105.01"/><line class="cls-78" x1="120.5" y1="120.73" x2="163.31" y2="120.73"/><g class="cls-79"><path class="cls-40" d="M414,43.23H199.5a1.5,1.5,0,0,1,0-3H414a1.5,1.5,0,0,1,0,3Z"/></g><g class="cls-79"><path class="cls-40" d="M414,60.23H199.5a1.5,1.5,0,0,1,0-3H414a1.5,1.5,0,0,1,0,3Z"/></g><g class="cls-79"><path class="cls-40" d="M328,77.23H199.5a1.5,1.5,0,0,1,0-3H328a1.5,1.5,0,0,1,0,3Z"/></g></g></g></svg>