<svg xmlns="http://www.w3.org/2000/svg" viewBox="0 0 56.71 50.75"><defs><style>.a{isolation:isolate;}.b{opacity:0.8;}.b,.e{mix-blend-mode:multiply;}.c{fill:#ed8e00;}.d{fill:#c4302f;}.e{fill:#af1f64;opacity:0.85;}</style></defs><title>Asset 2</title><g class="a"><g class="b"><path class="c" d="M25.88.28c-2.5-.81-5.58.14-8.63,3.06L3.87,16.17C-2.22,22-1,28.81,6.62,31.27l16.7,5.41c7.61,2.46,12.6-2.32,11.08-10.62L31.08,7.82c-.76-4.15-2.69-6.73-5.2-7.54Z"/></g><g class="b"><path class="d" d="M37.94,3.14A15.73,15.73,0,0,0,32.55,4.6L14.66,12.73c-4.57,2.07-7.31,5.26-7.72,9-.39,3.52,1.42,7,5.08,9.74l15,11.31a12.28,12.28,0,0,0,8.06,2.8c4.77-.31,8.29-4.35,9.2-10.53l2.84-19.44C48.12,9,45.51,6,43.87,4.75a8.79,8.79,0,0,0-5.93-1.61Z"/></g><path class="e" d="M33.8,50.71c-2.93-.33-5.57-2.39-7.49-5.88L17,27.8c-2.11-3.83-2.3-7.46-.54-10.22s5.21-4.26,9.76-4.28l20.27-.07c4.56,0,7.91,1.5,9.42,4.25s1,6.39-1.45,10.23L43.49,44.8c-2.44,3.83-5.58,5.94-8.83,6A6.12,6.12,0,0,1,33.8,50.71Z"/></g></svg>