<svg xmlns="http://www.w3.org/2000/svg" viewBox="0 0 270.33 51.4"><defs><style>.a{isolation:isolate;}.b{opacity:0.8;}.b,.e{mix-blend-mode:multiply;}.c{fill:#ed8e00;}.d{fill:#c4302f;}.e{fill:#af1f64;opacity:0.85;}</style></defs><title>Asset 1</title><g class="a"><path d="M86.58,12.85a12.83,12.83,0,0,1,4.77,4.82,13.46,13.46,0,0,1,1.76,6.82V35.23a2.39,2.39,0,0,1-2.46,2.46,2.39,2.39,0,0,1-2.46-2.46V33.45A12.12,12.12,0,0,1,72.6,36.1a12.06,12.06,0,0,1-4.43-4.79,14.37,14.37,0,0,1-1.62-6.82,13.54,13.54,0,0,1,1.74-6.82,12.56,12.56,0,0,1,4.8-4.82,13.23,13.23,0,0,1,6.77-1.76A13,13,0,0,1,86.58,12.85ZM84.22,32.32a8.34,8.34,0,0,0,3.06-3.23,9.51,9.51,0,0,0,1.11-4.6,9.63,9.63,0,0,0-1.11-4.63,8.48,8.48,0,0,0-11.79-3.25,8.38,8.38,0,0,0-3.08,3.25,9.42,9.42,0,0,0-1.13,4.63,9.31,9.31,0,0,0,1.13,4.6,8.47,8.47,0,0,0,3.08,3.23,8.66,8.66,0,0,0,8.73,0Z"/><path d="M118.05,12.85a12.63,12.63,0,0,1,4.8,4.82,13.54,13.54,0,0,1,1.73,6.82A14.36,14.36,0,0,1,123,31.31a12.13,12.13,0,0,1-4.43,4.79,11.75,11.75,0,0,1-6.29,1.74,11.88,11.88,0,0,1-9.31-4.39v13a2.5,2.5,0,0,1-4.21,1.79,2.37,2.37,0,0,1-.7-1.79v-22a13.36,13.36,0,0,1,1.76-6.82,12.83,12.83,0,0,1,4.77-4.82,13,13,0,0,1,6.72-1.76A13.25,13.25,0,0,1,118.05,12.85Zm-2.41,19.47a8.57,8.57,0,0,0,3.09-3.23,9.41,9.41,0,0,0,1.13-4.6,9.53,9.53,0,0,0-1.13-4.63,8.48,8.48,0,0,0-3.09-3.25,8.39,8.39,0,0,0-11.78,3.25,9.63,9.63,0,0,0-1.11,4.63,9.51,9.51,0,0,0,1.11,4.6,8.34,8.34,0,0,0,3.06,3.23,8.64,8.64,0,0,0,8.72,0Z"/><path d="M148.32,12.85a12.63,12.63,0,0,1,4.8,4.82,13.64,13.64,0,0,1,1.73,6.82,14.48,14.48,0,0,1-1.61,6.82,12.15,12.15,0,0,1-4.44,4.79,11.72,11.72,0,0,1-6.29,1.74,11.88,11.88,0,0,1-9.3-4.39v13a2.31,2.31,0,0,1-2.46,2.46,2.45,2.45,0,0,1-1.76-.67,2.4,2.4,0,0,1-.69-1.79v-22a13.45,13.45,0,0,1,1.75-6.82,13,13,0,0,1,11.5-6.58A13.28,13.28,0,0,1,148.32,12.85Zm-2.41,19.47A8.57,8.57,0,0,0,149,29.09a9.41,9.41,0,0,0,1.13-4.6A9.53,9.53,0,0,0,149,19.86a8.48,8.48,0,0,0-3.09-3.25,8.39,8.39,0,0,0-11.78,3.25A9.63,9.63,0,0,0,133,24.49a9.51,9.51,0,0,0,1.11,4.6,8.34,8.34,0,0,0,3.06,3.23,8.64,8.64,0,0,0,8.72,0Z"/><path d="M163.19,36.82a11.63,11.63,0,0,1-4.53-2.65,2,2,0,0,1-.63-1.49,2.23,2.23,0,0,1,1-1.88,2.92,2.92,0,0,1,1.68-.68,2.58,2.58,0,0,1,1.84.87,7.37,7.37,0,0,0,2.74,1.76,10.23,10.23,0,0,0,3.91.75,8.27,8.27,0,0,0,4.26-.92A2.76,2.76,0,0,0,175,30.12a2.92,2.92,0,0,0-1.49-2.48A14.75,14.75,0,0,0,168.4,26q-9.26-1.78-9.26-7.62a6,6,0,0,1,1.4-4,8.43,8.43,0,0,1,3.66-2.45,14,14,0,0,1,4.82-.82,14.7,14.7,0,0,1,5.62,1,9.7,9.7,0,0,1,3.93,2.79,2.5,2.5,0,0,1,.62,1.55,1.92,1.92,0,0,1-.82,1.49,2.2,2.2,0,0,1-1.35.39,3.29,3.29,0,0,1-2.26-.92,7.25,7.25,0,0,0-2.56-1.57,10.41,10.41,0,0,0-3.27-.45,7.75,7.75,0,0,0-3.64.74,2.3,2.3,0,0,0-1.42,2.1,2.63,2.63,0,0,0,.48,1.61A4.22,4.22,0,0,0,166.18,21a23,23,0,0,0,3.9,1.08q5.26,1.06,7.45,2.94a6.13,6.13,0,0,1,2.19,4.87,7.14,7.14,0,0,1-1.2,4A8.07,8.07,0,0,1,175,36.8a13.82,13.82,0,0,1-5.62,1A18.45,18.45,0,0,1,163.19,36.82Z"/><path d="M189.8,36.13a12.14,12.14,0,0,1-4.73-4.75,14,14,0,0,1-1.68-6.89,14.13,14.13,0,0,1,1.68-6.95,12.11,12.11,0,0,1,4.73-4.74,13.78,13.78,0,0,1,6.89-1.71,13.57,13.57,0,0,1,6.82,1.71,12.29,12.29,0,0,1,4.72,4.74,13.93,13.93,0,0,1,1.71,7,14,14,0,0,1-1.68,6.89,12.19,12.19,0,0,1-4.7,4.75,14.7,14.7,0,0,1-13.76,0Zm11.3-3.79a8.08,8.08,0,0,0,3-3.2,9.84,9.84,0,0,0,1.08-4.65,10,10,0,0,0-1.08-4.68,8,8,0,0,0-3-3.23,9,9,0,0,0-8.82,0,8.14,8.14,0,0,0-3.06,3.23,9.75,9.75,0,0,0-1.11,4.68,9.63,9.63,0,0,0,1.11,4.65,8.19,8.19,0,0,0,3.06,3.2,9,9,0,0,0,8.82,0Z"/><path d="M239.39.68a2.39,2.39,0,0,1,.68,1.78v22a13.48,13.48,0,0,1-1.76,6.82,13,13,0,0,1-4.77,4.82,13.13,13.13,0,0,1-6.73,1.76A13.38,13.38,0,0,1,220,36.08a12.67,12.67,0,0,1-4.79-4.82,13.57,13.57,0,0,1-1.74-6.82,14.34,14.34,0,0,1,1.62-6.82,12.15,12.15,0,0,1,4.43-4.8,11.74,11.74,0,0,1,6.29-1.73,11.79,11.79,0,0,1,9.3,4.38v-13a2.33,2.33,0,0,1,.7-1.78A2.44,2.44,0,0,1,237.61,0,2.4,2.4,0,0,1,239.39.68Zm-8.21,31.64a8.29,8.29,0,0,0,3.06-3.26,9.61,9.61,0,0,0,1.1-4.62,9.52,9.52,0,0,0-1.1-4.61,8.5,8.5,0,0,0-11.79-3.22,8.44,8.44,0,0,0-3.08,3.22,9.32,9.32,0,0,0-1.14,4.61,9.42,9.42,0,0,0,1.14,4.62,8.41,8.41,0,0,0,3.08,3.26,8.66,8.66,0,0,0,8.73,0Z"/><path d="M270.33,13.4a2.93,2.93,0,0,1-.29,1.16L255.29,47.72a2,2,0,0,1-1.88,1.49,2.89,2.89,0,0,1-1.15-.29A2,2,0,0,1,250.81,47a2.58,2.58,0,0,1,.29-1.15L255.92,35,245.08,14.46a2,2,0,0,1-.24-1,1.9,1.9,0,0,1,.38-1.16,2.55,2.55,0,0,1,1-.82,2.33,2.33,0,0,1,1-.19,2.16,2.16,0,0,1,2,1.35L258,30.17l7.76-17.49a2,2,0,0,1,1.88-1.4,2.8,2.8,0,0,1,1.16.24A2,2,0,0,1,270.33,13.4Z"/><g class="b"><path class="c" d="M25.88.92C23.38.11,20.3,1.07,17.25,4L3.87,16.82C-2.22,22.66-1,29.45,6.62,31.92l16.7,5.4C30.93,39.79,35.92,35,34.4,26.7L31.08,8.47c-.76-4.16-2.69-6.74-5.2-7.55Z"/></g><g class="b"><path class="d" d="M37.94,3.79a15.5,15.5,0,0,0-5.39,1.46L14.66,13.37c-4.57,2.08-7.31,5.27-7.72,9-.39,3.53,1.42,7,5.08,9.74l15,11.31a12.24,12.24,0,0,0,8.06,2.81c4.77-.31,8.29-4.35,9.2-10.54l2.84-19.44c1-6.56-1.65-9.6-3.29-10.84a8.73,8.73,0,0,0-5.93-1.6Z"/></g><path class="e" d="M33.8,51.35C30.87,51,28.23,49,26.31,45.47L17,28.45c-2.11-3.84-2.3-7.47-.54-10.22S21.62,14,26.17,14l20.27-.07c4.56,0,7.91,1.49,9.42,4.25s1,6.38-1.45,10.23L43.49,45.45c-2.44,3.83-5.58,5.94-8.83,5.95A6.11,6.11,0,0,1,33.8,51.35Z"/></g></svg>