<?xml version="1.0" encoding="UTF-8"?>
<svg width="1087px" height="879px" viewBox="0 0 1087 879" version="1.1" xmlns="http://www.w3.org/2000/svg" xmlns:xlink="http://www.w3.org/1999/xlink">
    <!-- Generator: Sketch 63.1 (92452) - https://sketch.com -->
    <title>download</title>
    <desc>Created with Sketch.</desc>
    <g id="Page-1" stroke="none" stroke-width="1" fill="none" fill-rule="evenodd" opacity="0.7">
        <g id="download" transform="translate(-6.000000, 0.000000)" fill-rule="nonzero">
            <g id="Group" opacity="0.8" style="mix-blend-mode: multiply;" transform="translate(-0.000000, 9.000000)" fill="#ED8E00">
                <path d="M88.6988606,9.74716853 C81.0199212,7.26484103 71.5591411,10.1772234 62.1901794,19.1278884 L21.0896159,58.4556355 C2.38241044,76.3263126 6.12865655,97.1995792 29.5340652,104.738495 L80.8293801,121.317991 C104.204072,128.856908 119.532309,114.204793 114.864824,88.764547 L104.670072,32.8573042 C102.336329,20.1371812 96.4085162,12.2294944 88.6988606,9.74716853 Z" id="Path" transform="translate(62.445921, 66.098482) rotate(10.000000) translate(-62.445921, -66.098482) "></path>
            </g>
            <g id="Group" opacity="0.8" style="mix-blend-mode: multiply;" transform="translate(850.000000, 32.000000)" fill="#ED8E00">
                <path d="M149.827068,9.91767794 C137.36315,5.89063567 122.006192,10.6180708 106.797382,25.1440589 L40.0780613,88.9688475 C9.71030575,117.971078 15.7880524,151.842423 53.7780813,164.07268 L137.037055,190.969343 C174.977226,203.199607 199.859839,179.420766 192.287431,138.138533 L175.747778,47.4170808 C171.961574,26.7759643 162.340845,13.944713 149.827068,9.91767794 Z" id="Path" transform="translate(107.202101, 101.361369) rotate(100.000000) translate(-107.202101, -101.361369) "></path>
            </g>
            <g id="Group" opacity="0.8" style="mix-blend-mode: multiply;" transform="translate(209.000000, 739.000000)" fill="#ED8E00">
                <path d="M82.5733816,8.45963164 C75.4437109,6.16081846 66.6672976,8.8342718 57.9838279,17.0758363 L19.8905194,53.287996 C2.55204877,69.7428988 6.05550278,88.9952516 27.7867056,95.9769358 L75.4129028,111.330747 C97.1155991,118.312393 111.322315,104.821054 106.958051,81.3562412 L97.4251627,29.7902705 C95.243031,18.0578639 89.7315587,10.7584826 82.5733816,8.45963164 Z" id="Path" transform="translate(58.311458, 60.420965) rotate(170.000000) translate(-58.311458, -60.420965) "></path>
            </g>
            <g id="Group" opacity="0.8" style="mix-blend-mode: multiply;" transform="translate(794.623682, 716.175026)" fill="#ED8E00">
                <path d="M84.7210531,8.91974239 C77.4053497,6.52755825 68.3996345,9.31085933 59.488985,17.8896997 L20.3990637,55.583793 C2.60697839,72.7120926 6.20085556,92.7505681 28.4990867,100.015822 L77.3679827,115.993258 C99.6369631,123.258475 114.21536,109.21502 109.738428,84.7920858 L99.959453,31.1205559 C97.720987,18.9090887 92.0660074,11.3119637 84.7210531,8.91974239 Z" id="Path" transform="translate(59.821611, 63.003540) rotate(190.000000) translate(-59.821611, -63.003540) "></path>
            </g>
            <g id="Group" opacity="0.8" style="mix-blend-mode: multiply;" transform="translate(882.623682, 648.175026)" fill="#C4302F">
                <path d="M169.597788,11.6220008 C160.628932,12.4024403 151.87032,14.7883007 143.73592,18.666817 L57.892091,57.8758109 C35.9632986,67.8589374 22.8123818,83.2364586 20.8391229,101.26065 C18.9621829,118.224601 27.6401839,134.992155 45.1951044,148.190505 L117.141366,202.670004 C128.007991,211.662225 141.724771,216.44452 155.805936,216.150237 C178.691338,214.648434 195.58585,195.173372 199.961998,165.389699 L213.619682,71.7012889 C218.428335,39.8452452 205.9114,25.39219 198.045298,19.3709958 C189.802013,13.4338518 179.70194,10.6826296 169.597788,11.6220008 Z" id="Path" transform="translate(117.638235, 113.802337) rotate(100.000000) translate(-117.638235, -113.802337) "></path>
            </g>
            <g id="Group" opacity="0.8" style="mix-blend-mode: multiply;" transform="translate(13.000000, 655.000000)" fill="#C4302F">
                <path d="M164.920206,10.7116313 C156.225986,11.4640098 147.737039,13.7809275 139.854585,17.5528781 L56.6680401,55.6813107 C35.4180208,65.3892472 22.682647,80.3614972 20.785925,97.9227965 C18.9816233,114.451067 27.4097099,130.797492 44.4403702,143.674035 L114.238379,196.824729 C124.781225,205.596711 138.083375,210.269042 151.734199,209.994997 C173.919266,208.552271 190.280198,189.590686 194.495804,160.572915 L207.651784,69.2936522 C212.284815,38.2569181 200.137135,24.1623159 192.505849,18.2880614 C184.508977,12.4953662 174.714903,9.80541191 164.920206,10.7116313 Z" id="Path" transform="translate(114.611171, 110.272881) rotate(100.000000) translate(-114.611171, -110.272881) "></path>
            </g>
            <g id="Group" opacity="0.8" style="mix-blend-mode: multiply;" transform="translate(43.000000, 61.000000)" fill="#C4302F">
                <path d="M67.6127392,12.7573365 C64.3771962,13.0349281 61.2180209,13.8895374 58.2845281,15.2807724 L27.3262851,29.3439922 C19.4179964,32.9246503 14.6783301,38.4467448 13.9722002,44.9235792 C13.3004802,51.0194194 16.4367198,57.0480684 22.7744382,61.7968803 L48.7487702,81.3986262 C52.6721284,84.6337071 57.6224175,86.3567555 62.7025405,86.2555186 C70.9586778,85.7231549 77.0476473,78.7297031 78.61692,68.0275607 L83.5142856,34.3625476 C85.2389327,22.915783 80.7184214,17.7176775 77.8785484,15.5512768 C74.9026221,13.4149607 71.2578241,12.4229933 67.6127392,12.7573365 Z" id="Path" transform="translate(48.889309, 49.476747) rotate(30.000000) translate(-48.889309, -49.476747) "></path>
            </g>
            <g id="Group" opacity="0.8" style="mix-blend-mode: multiply;" transform="translate(827.000000, 42.000000)" fill="#C4302F">
                <path d="M68.3479886,13.4865866 C65.1639136,13.763517 62.0543021,14.6080495 59.1661261,15.9802682 L28.68686,29.8528057 C20.90094,33.3849445 16.2306236,38.8233972 15.5281449,45.1963912 C14.8599753,51.1945077 17.9388852,57.1220171 24.1695354,61.7865884 L49.7048975,81.040833 C53.5616263,84.2189919 58.430633,85.9083408 63.4295506,85.8027342 C71.554149,85.2692134 77.5539068,78.3815876 79.1107033,67.8505524 L83.9694474,34.7238259 C85.6800109,23.460019 81.238008,18.351267 78.4461567,16.223236 C75.5203947,14.1249641 71.9351163,13.1533374 68.3479886,13.4865866 Z" id="Path" transform="translate(49.894421, 49.614891) rotate(55.000000) translate(-49.894421, -49.614891) "></path>
            </g>
            <path d="M132.941592,750.033206 L56.2051221,760.375073 C38.9241429,762.761461 25.1317366,758.26373 17.3663658,747.730972 C9.6009951,737.198214 8.94378699,722.160975 15.3710987,705.138447 L44.0755581,629.331419 C50.5916548,612.300233 60.9658492,601.94009 73.3666995,600.24535 C85.7675498,598.550609 98.5969258,605.677122 109.399056,620.336265 L157.37953,685.82443 C168.158702,700.431879 171.530998,715.186363 167.110336,727.41089 C166.662102,728.474256 166.139417,729.504465 165.546194,730.493804 C160.130143,740.963692 148.684647,747.868709 132.941592,750.033206 Z" id="Path" fill="#AF1F64" opacity="0.85" style="mix-blend-mode: multiply;"></path>
            <g id="Group" opacity="0.8" style="mix-blend-mode: multiply;" transform="translate(558.000000, 328.000000)" fill="#ED8E00">
                <path d="M90.4008059,6.09093858 C82.8683048,3.66057453 73.5849156,6.52132874 64.3885473,15.3033611 L24.0451002,53.8901314 C5.68251644,71.4241215 9.34735216,91.891191 32.3064308,99.2722495 L82.6235394,115.504677 C105.552482,122.885753 120.598349,108.509691 116.032007,83.5645673 L106.058345,28.7453698 C103.775174,16.2728081 97.9634425,8.52128546 90.4008059,6.09093858 Z" id="Path" transform="translate(64.603704, 61.351190) rotate(100.000000) translate(-64.603704, -61.351190) "></path>
            </g>
            <g id="Group" opacity="0.8" style="mix-blend-mode: multiply;" transform="translate(666.000000, 395.000000)" fill="#C4302F">
                <path d="M80.5274048,5.64502636 C76.3130873,6.01259987 72.1978238,7.13933509 68.3761171,8.97197821 L28.0446635,27.4980868 C17.7419948,32.2150665 11.5649023,39.4842284 10.6405929,48.0066941 C9.76137172,56.0278383 13.8418598,63.9578331 22.0930124,70.2015646 L55.9092117,95.9740478 C61.0168691,100.227812 67.4631254,102.491365 74.0797828,102.354503 C84.8333341,101.648096 92.7688689,92.4420098 94.820385,78.3594328 L101.222919,34.0608411 C103.477332,18.9984084 97.5933133,12.162206 93.8960755,9.31378833 C90.0216144,6.50505259 85.2751687,5.20248635 80.5274048,5.64502636 Z" id="Path" transform="translate(56.123141, 53.960365) rotate(100.000000) translate(-56.123141, -53.960365) "></path>
            </g>
            <path d="M620.942863,432.133185 L657.946771,419.634149 C666.274521,416.79106 673.533962,417.680044 678.386972,422.126983 C683.239982,426.573921 685.004766,433.928058 683.451889,442.944459 L676.496063,483.105374 C674.900056,492.134605 670.755261,498.245111 664.777561,500.276567 C658.799861,502.308023 651.765606,500.029488 645.014049,493.83986 L614.989281,466.161665 C608.254039,459.995324 605.172023,453.042407 606.190637,446.586187 C606.31078,446.018444 606.470959,445.459879 606.669976,444.914674 C608.349384,439.228016 613.355333,434.71856 620.942863,432.133185 Z" id="Path" fill="#AF1F64" opacity="0.85" style="mix-blend-mode: multiply;"></path>
            <path d="M1062.04862,80.4764643 L1015.12252,118.069018 C1004.57767,126.572944 993.611813,129.109087 984.251679,125.224813 C974.891545,121.340539 968.465827,111.619216 965.962061,97.7430125 L954.866153,35.9149948 C952.417998,21.9974921 955.192959,10.9646445 962.767018,4.87399278 C970.341077,-1.21665894 981.713233,-1.62173181 994.736728,3.78645599 L1052.73362,28.0578295 C1065.72126,33.4408856 1073.84043,41.8873272 1075.76822,51.7742653 C1075.89354,52.6597978 1075.95613,53.5531251 1075.95552,54.4475595 C1076.5224,63.568006 1071.65882,72.7356641 1062.04862,80.4764643 Z" id="Path" fill="#AF1F64" opacity="0.85" style="mix-blend-mode: multiply;"></path>
            <path d="M52.6071903,180.579272 L60.1781765,142.889849 C61.8561404,134.392951 66.2080997,128.645766 72.4230656,126.70261 C78.6380314,124.759453 85.8205527,126.880498 92.7890166,132.647629 L123.808717,158.368841 C130.766865,164.179044 133.960529,170.722336 132.748075,176.816854 C131.535621,182.911372 126.102738,187.781806 117.453839,190.483666 L78.8606801,202.42397 C70.2398274,205.123406 62.7502973,204.322451 57.7143657,200.2724 C57.2866329,199.890204 56.8865698,199.478418 56.5171714,199.040127 C52.4682456,194.806353 51.0740803,188.318449 52.6071903,180.579272 Z" id="Path" fill="#AF1F64" opacity="0.85" style="mix-blend-mode: multiply;"></path>
            <path d="M907.06922,867.943061 L886.817914,836.84865 C882.232191,829.857757 881.37674,822.991349 884.399678,817.517452 C887.422615,812.043555 893.874983,808.737159 902.648412,808.094366 L941.73613,805.267021 C950.531541,804.66087 957.195138,807.063357 960.47809,812.083594 C963.761041,817.103831 963.267666,824.082274 959.059324,831.698304 L940.202277,865.602404 C936.011876,873.198119 930.239612,877.621411 923.979035,878.167339 C923.421401,878.187291 922.863039,878.168394 922.308128,878.110789 C916.612238,877.873753 911.242667,874.31371 907.06922,867.943061 Z" id="Path" fill="#AF1F64" opacity="0.85" style="mix-blend-mode: multiply;"></path>
        </g>
    </g>
</svg>