<svg xmlns="http://www.w3.org/2000/svg" viewBox="0 0 16 14.32"><defs><style>.a{isolation:isolate;}.b{opacity:0.8;}.b,.e{mix-blend-mode:multiply;}.c{fill:#ed8e00;}.d{fill:#c4302f;}.e{fill:#af1f64;opacity:0.85;}</style></defs><title>Asset 4</title><g class="a"><g class="b"><path class="c" d="M7.3.08A2.49,2.49,0,0,0,4.87.94L1.09,4.56C-.63,6.21-.28,8.13,1.87,8.82l4.71,1.53c2.15.69,3.55-.66,3.13-3L8.77,2.21A2.5,2.5,0,0,0,7.3.08Z"/></g><g class="b"><path class="d" d="M10.7.89a4.44,4.44,0,0,0-1.52.41l-5,2.29A3.33,3.33,0,0,0,2,6.12,3.07,3.07,0,0,0,3.39,8.87l4.24,3.19a3.44,3.44,0,0,0,2.28.79c1.34-.08,2.34-1.22,2.59-3l.8-5.48a3,3,0,0,0-.92-3.06A2.43,2.43,0,0,0,10.7.89Z"/></g><path class="e" d="M9.53,14.31a2.94,2.94,0,0,1-2.11-1.66L4.78,7.84A2.77,2.77,0,0,1,4.63,5,3.13,3.13,0,0,1,7.38,3.75l5.72,0a2.83,2.83,0,0,1,2.66,1.2,2.83,2.83,0,0,1-.41,2.89l-3.08,4.82a3.1,3.1,0,0,1-2.49,1.68Z"/></g></svg>