<?xml version="1.0" encoding="UTF-8"?>
<svg width="1112px" height="838px" viewBox="0 0 1112 838" version="1.1" xmlns="http://www.w3.org/2000/svg" xmlns:xlink="http://www.w3.org/1999/xlink">
    <!-- Generator: Sketch 63.1 (92452) - https://sketch.com -->
    <title>Page 1</title>
    <desc>Created with Sketch.</desc>
    <g id="Page-1" stroke="none" stroke-width="1" fill="none" fill-rule="evenodd" opacity="0.75">
        <g id="download" transform="translate(327.000000, -13.000000)" fill-rule="nonzero">
            <g id="Group" opacity="0.8" style="mix-blend-mode: multiply;" transform="translate(243.000000, 650.500000) rotate(45.000000) translate(-243.000000, -650.500000) translate(205.000000, 609.000000)" fill="#ED8E00">
                <path d="M56.7290753,0.616171228 C51.2498436,-1.18510563 44.4994301,0.927503031 37.8147674,7.42099492 L8.48991927,35.9523309 C-4.8574892,48.9170767 -2.18362412,64.0611451 14.5170742,69.5316896 L51.1183421,81.56244 C67.7971234,87.0329846 78.7336699,76.4032273 75.4022971,57.945699 L68.1258773,17.3836126 C66.4601909,8.15484846 62.230224,2.41744809 56.7290753,0.616171228 Z" id="Path"></path>
            </g>
            <g id="Group" opacity="0.8" style="mix-blend-mode: multiply;" transform="translate(489.000000, 588.500000) rotate(21.000000) translate(-489.000000, -588.500000) translate(451.000000, 547.000000)" fill="#ED8E00">
                <path d="M56.7290753,0.616171228 C51.2498436,-1.18510563 44.4994301,0.927503031 37.8147674,7.42099492 L8.48991927,35.9523309 C-4.8574892,48.9170767 -2.18362412,64.0611451 14.5170742,69.5316896 L51.1183421,81.56244 C67.7971234,87.0329846 78.7336699,76.4032273 75.4022971,57.945699 L68.1258773,17.3836126 C66.4601909,8.15484846 62.230224,2.41744809 56.7290753,0.616171228 Z" id="Path"></path>
            </g>
            <g id="Group" opacity="0.8" style="mix-blend-mode: multiply;" transform="translate(621.500000, 328.000000) rotate(-45.000000) translate(-621.500000, -328.000000) translate(583.000000, 286.000000)" fill="#ED8E00">
                <path d="M57.1813481,1.42378307 C51.7021164,-0.377493789 44.9517029,1.73511488 38.2670402,8.22860677 L8.94219206,36.7599427 C-4.40521642,49.7246885 -1.73135134,64.8687569 14.969347,70.3393015 L51.5706149,82.3700519 C68.2493962,87.8405964 79.1859427,77.2108391 75.8545698,58.7533108 L68.5781501,18.1912245 C66.9124637,8.9624603 62.6824968,3.22505993 57.1813481,1.42378307 Z" id="Path"></path>
            </g>
            <g id="Group" opacity="0.8" style="mix-blend-mode: multiply;" transform="translate(278.000000, 207.000000)" fill="#C4302F">
                <path d="M31.94,0.14 C30.0706367,0.301306006 28.2452112,0.795762643 26.55,1.6 L8.66,9.73 C4.09,11.8 1.35,14.99 0.94,18.73 C0.55,22.25 2.36,25.73 6.02,28.47 L21.02,39.78 C23.285626,41.6467223 26.1450202,42.6400602 29.08,42.58 C33.85,42.27 37.37,38.23 38.28,32.05 L41.12,12.61 C42.12,6 39.51,3 37.87,1.75 C36.1513883,0.517414025 34.0459865,-0.0542043213 31.94,0.14 Z" id="Path"></path>
            </g>
            <g id="Group" opacity="0.8" style="mix-blend-mode: multiply;" transform="translate(0.000000, 781.000000)" fill="#C4302F">
                <path d="M31.94,0.14 C30.0706367,0.301306006 28.2452112,0.795762643 26.55,1.6 L8.66,9.73 C4.09,11.8 1.35,14.99 0.94,18.73 C0.55,22.25 2.36,25.73 6.02,28.47 L21.02,39.78 C23.285626,41.6467223 26.1450202,42.6400602 29.08,42.58 C33.85,42.27 37.37,38.23 38.28,32.05 L41.12,12.61 C42.12,6 39.51,3 37.87,1.75 C36.1513883,0.517414025 34.0459865,-0.0542043213 31.94,0.14 Z" id="Path"></path>
            </g>
            <g id="Group" opacity="0.8" style="mix-blend-mode: multiply;" transform="translate(322.500000, 46.500000) rotate(20.000000) translate(-322.500000, -46.500000) translate(288.000000, 10.000000)" fill="#C4302F">
                <path d="M52.9637521,0.0638456099 C49.7752883,0.341044635 46.6617665,1.19075198 43.7703437,2.57280723 L13.256415,16.5439428 C5.4616327,20.1011692 0.788174634,25.5830785 0.0888615657,32.0101446 C-0.57633867,38.059148 2.51087268,44.0394126 8.75352105,48.7480119 L34.3381455,68.1838721 C38.2024916,71.3917725 43.0795934,73.0987908 48.0856171,72.9955793 C56.2215276,72.4628546 62.2253862,65.5202484 63.7775201,54.9001232 L68.6215423,21.4931274 C70.3271839,10.1340614 65.8754593,4.97866084 63.078207,2.83057726 C60.1468712,0.712419106 56.5558104,-0.269888081 52.9637521,0.0638456099 Z" id="Path"></path>
            </g>
            <g id="Group" opacity="0.8" style="mix-blend-mode: multiply;" transform="translate(734.000000, 567.000000) rotate(99.000000) translate(-734.000000, -567.000000) translate(687.000000, 518.000000)" fill="#C4302F">
                <path d="M68.4072488,7.07346618 C64.7104792,7.39243492 61.1005988,8.37018036 57.7482246,9.96049051 L22.3697565,26.0368657 C13.3323278,30.1301125 7.91382566,36.438063 7.1030279,43.8335911 C6.33178125,50.7940881 9.91115673,57.6754885 17.1490099,63.0936027 L46.8123426,85.4581542 C51.2927439,89.1494368 56.9473547,91.1136771 62.7514401,90.9949132 C72.1843799,90.3819148 79.1453753,82.3931626 80.9449508,70.1727445 L86.5612084,31.7318178 C88.538764,18.6611118 83.3773441,12.72887 80.134153,10.2571026 C76.7355029,7.81976993 72.5719541,6.68944385 68.4072488,7.07346618 Z" id="Path" transform="translate(47.000000, 49.000000) rotate(10.000000) translate(-47.000000, -49.000000) "></path>
            </g>
            <path d="M648.455806,167.230237 L614.352381,105.129891 C606.623248,91.1636944 605.92726,77.9268033 612.374309,67.8623902 C618.821358,57.7979771 631.45904,52.3281874 648.126128,52.2552569 L722.377087,52 C739.080805,52 751.352177,57.4697897 756.883453,67.4977376 C762.414728,77.5256854 760.546549,90.7990418 751.571963,104.801703 L711.387798,167.120841 C702.449844,181.087038 690.947722,188.781208 679.042659,189 C677.986112,188.964681 676.933398,188.855012 675.892397,188.671813 C665.159525,187.468459 655.488951,179.956614 648.455806,167.230237 Z" id="Path" fill="#AF1F64" opacity="0.85" style="mix-blend-mode: multiply;" transform="translate(684.000000, 120.500000) rotate(45.000000) translate(-684.000000, -120.500000) "></path>
            <path d="M555.09865,836.14799 L539.841855,808.044184 C536.384085,801.723716 536.072722,795.733298 538.956928,791.1786 C541.841134,786.623902 547.494834,784.148523 554.951162,784.115518 L588.168697,784 C595.641413,784 601.131237,786.475379 603.605755,791.013575 C606.080273,795.55177 605.244509,801.55869 601.229562,807.895661 L583.252436,836.098483 C579.253877,842.418951 574.108191,845.900985 568.782242,846 C568.309576,845.984016 567.838625,845.934385 567.372914,845.851477 C562.571366,845.306894 558.245057,841.907373 555.09865,836.14799 Z" id="Path" fill="#AF1F64" opacity="0.85" style="mix-blend-mode: multiply;" transform="translate(571.000000, 815.000000) rotate(175.000000) translate(-571.000000, -815.000000) "></path>
            <path d="M334.044156,435.6 L324.734156,418.57 C322.624156,414.74 322.434156,411.11 324.194156,408.35 C325.954156,405.59 329.404156,404.09 333.954156,404.07 L354.224156,404 C358.784156,404 362.134156,405.5 363.644156,408.25 C365.154156,411 364.644156,414.64 362.194156,418.48 L351.224156,435.57 C348.784156,439.4 345.644156,441.51 342.394156,441.57 C342.105726,441.560314 341.818342,441.530239 341.534156,441.48 C338.604156,441.15 335.964156,439.09 334.044156,435.6 Z" id="Path" fill="#AF1F64" opacity="0.85" style="mix-blend-mode: multiply;"></path>
        </g>
        <g id="download" transform="translate(-8.000000, 9.000000)" fill-rule="nonzero">
            <g id="Group" opacity="0.8" style="mix-blend-mode: multiply;" transform="translate(81.000000, 403.500000) rotate(90.000000) translate(-81.000000, -403.500000) translate(43.000000, 362.000000)" fill="#ED8E00">
                <path d="M56.7290753,0.616171228 C51.2498436,-1.18510563 44.4994301,0.927503031 37.8147674,7.42099492 L8.48991927,35.9523309 C-4.8574892,48.9170767 -2.18362412,64.0611451 14.5170742,69.5316896 L51.1183421,81.56244 C67.7971234,87.0329846 78.7336699,76.4032273 75.4022971,57.945699 L68.1258773,17.3836126 C66.4601909,8.15484846 62.230224,2.41744809 56.7290753,0.616171228 Z" id="Path"></path>
            </g>
            <g id="Group" opacity="0.8" style="mix-blend-mode: multiply;" transform="translate(72.000000, 76.500000) rotate(10.000000) translate(-72.000000, -76.500000) translate(11.000000, 11.000000)" fill="#ED8E00">
                <path d="M90.6922317,1.0951422 C81.968718,-1.72613482 71.2213492,1.58277032 60.5786625,11.7532998 L13.8904174,56.4409344 C-7.36006189,76.7471628 -3.10298723,100.466788 23.4862824,109.035111 L81.7593537,127.878455 C108.313729,136.446778 125.725863,119.79776 120.421966,90.8883784 L108.83714,27.3573998 C106.185192,12.9027089 99.4506394,3.91641921 90.6922317,1.0951422 Z" id="Path"></path>
            </g>
            <g id="Group" opacity="0.8" style="mix-blend-mode: multiply;" transform="translate(411.000000, 358.000000)" fill="#AF1F64">
                <path d="M52.1961615,0.0629710125 C49.0539073,0.336372791 45.985509,1.17444031 43.1359909,2.5375633 L13.064293,16.3173135 C5.38247861,19.8258108 0.776751813,25.2326254 0.0875737169,31.5716495 C-0.567985936,37.5377898 2.47448322,43.436133 8.62665843,48.0802309 L33.8404912,67.2498464 C37.6488323,70.413803 42.4552515,72.0974375 47.3887241,71.9956399 C55.4067229,71.4702127 61.323569,64.6227108 62.8532082,54.1480667 L67.6270272,21.198701 C69.3079494,9.99523867 64.9207425,4.91046001 62.1640301,2.79180223 C59.2751775,0.70265994 55.736161,-0.266190984 52.1961615,0.0629710125 Z" id="Path"></path>
            </g>
            <g id="Group" opacity="0.8" style="mix-blend-mode: multiply;" transform="translate(254.359927, 50.513140) rotate(30.000000) translate(-254.359927, -50.513140) translate(219.359927, 13.513140)" fill="#C4302F">
                <path d="M53.5784888,0.482429897 C50.390025,0.759628922 47.2765032,1.60933627 44.3850804,2.99139152 L13.8711517,16.9625271 C6.07636941,20.5197535 1.40291134,26.0016628 0.703598275,32.4287289 C0.0383980395,38.4777323 3.12560939,44.4579969 9.36825776,49.1665961 L34.9528822,68.6024564 C38.8172283,71.8103568 43.6943301,73.5173751 48.7003538,73.4141636 C56.8362643,72.8814389 62.8401229,65.9388327 64.3922568,55.3187075 L69.236279,21.9117117 C70.9419206,10.5526457 66.490196,5.39724513 63.6929437,3.24916155 C60.761608,1.13100339 57.1705471,0.148696206 53.5784888,0.482429897 Z" id="Path"></path>
            </g>
            <path d="M55.4294333,807.512377 L39.0508146,777.595422 C35.3387968,770.867181 35.0045393,764.490285 38.1008195,759.641735 C41.1970998,754.793186 47.2665127,752.158105 55.2711008,752.12297 L90.9311009,752 C98.9532815,752 104.846769,754.635081 107.503237,759.466063 C110.159705,764.297046 109.262487,770.691509 104.952324,777.437317 L85.6533505,807.459675 C81.3607802,814.187916 75.8367348,817.894597 70.1191719,818 C69.6117512,817.982985 69.1061712,817.930152 68.6062168,817.841895 C63.4516139,817.262177 58.8071935,813.643332 55.4294333,807.512377 Z" id="Path" fill="#AF1F64" opacity="0.85" style="mix-blend-mode: multiply;" transform="translate(72.500000, 785.000000) rotate(-69.000000) translate(-72.500000, -785.000000) "></path>
            <path d="M279.534156,247.48 C276.604156,247.15 273.964156,245.09 272.044156,241.6 L262.734156,224.57 C260.624156,220.74 260.434156,217.11 262.194156,214.35 C263.954156,211.59 267.404156,210.09 271.954156,210.07 L292.224156,210 C296.784156,210 300.134156,211.5 301.644156,214.25 C303.154156,217 302.644156,220.64 300.194156,224.48 L289.224156,241.57 C286.784156,245.4 283.644156,247.51 280.394156,247.57 C280.105726,247.560314 279.818342,247.530239 279.534156,247.48 L279.534156,247.48 Z" id="Path" fill="#AF1F64" opacity="0.85" style="mix-blend-mode: multiply;" transform="translate(281.747476, 228.785000) rotate(33.000000) translate(-281.747476, -228.785000) "></path>
            <path d="M237.09865,610.14799 L221.841855,582.044184 C218.384085,575.723716 218.072722,569.733298 220.956928,565.1786 C223.841134,560.623902 229.494834,558.148523 236.951162,558.115518 L270.168697,558 C277.641413,558 283.131237,560.475379 285.605755,565.013575 C288.080273,569.55177 287.244509,575.55869 283.229562,581.895661 L265.252436,610.098483 C261.253877,616.418951 256.108191,619.900985 250.782242,620 C250.309576,619.984016 249.838625,619.934385 249.372914,619.851477 C244.571366,619.306894 240.245057,615.907373 237.09865,610.14799 Z" id="Path" fill="#AF1F64" opacity="0.85" style="mix-blend-mode: multiply;" transform="translate(253.000000, 589.000000) rotate(180.000000) translate(-253.000000, -589.000000) "></path>
        </g>
    </g>
</svg>